<svg xmlns="http://www.w3.org/2000/svg" width="96" height="25.17" viewBox="0 0 96 25.17">
  <g id="Group_6410" data-name="Group 6410" transform="translate(-825.497 -2104.433)">
    <path id="Path_28093" data-name="Path 28093" d="M7.893-12.219l-.343.831A2.492,2.492,0,0,1,5.292-9.6a1.96,1.96,0,0,1-1.328-.515A1.54,1.54,0,0,1,3.376-11.3a4.062,4.062,0,0,1,.524-1.68l2.4-4.879q.885-1.753,2.2-1.753a1.736,1.736,0,0,1,1.211.461,1.431,1.431,0,0,1,.506,1.093,4.759,4.759,0,0,1-.108.7,3.992,3.992,0,0,0-.072.7,4.028,4.028,0,0,0,.849,2.331l1.03,1.427a7.288,7.288,0,0,1,1.572,4.228,4.9,4.9,0,0,1-1.7,3.8A6.09,6.09,0,0,1,7.568-3.329H3.792Q1.5-3.329,1.5-4.919A2.053,2.053,0,0,1,2.31-6.645a3.6,3.6,0,0,1,2.241-.623h2.1q2.512,0,2.512-1.825a3.522,3.522,0,0,0-.47-1.572ZM27.137-7.268h1.988q2.277,0,2.277,1.59a2.053,2.053,0,0,1-.813,1.726,3.6,3.6,0,0,1-2.241.623H26.035A2.11,2.11,0,0,1,23.921-4.54,4.02,4.02,0,0,1,21.3-3.329h-2.06a4.024,4.024,0,0,1-3.207-1.418,5.5,5.5,0,0,1-1.22-3.713,9.172,9.172,0,0,1,2.394-6.207A7.072,7.072,0,0,1,22.62-17.4,3.76,3.76,0,0,1,26-15.8a2.737,2.737,0,0,1,2.367-1.355,1.854,1.854,0,0,1,1.328.506,1.651,1.651,0,0,1,.533,1.247,3.29,3.29,0,0,1-.289,1.211l-.2.488Zm-6.559.09h.452A1.913,1.913,0,0,0,23-8.388l1.265-3.126a2.822,2.822,0,0,0,.253-1.03,1.048,1.048,0,0,0-.479-.849,1.85,1.85,0,0,0-1.147-.361,3.425,3.425,0,0,0-2.566,1.536,5,5,0,0,0-1.247,3.18Q19.078-7.178,20.578-7.178Zm16.352-.09h1.9q2.295,0,2.295,1.608a2.037,2.037,0,0,1-.8,1.717,3.633,3.633,0,0,1-2.25.614H34.816A3.253,3.253,0,0,1,32.7-3.962a2.077,2.077,0,0,1-.777-1.7,5.9,5.9,0,0,1,.524-1.861l7.3-17.96.2-.488A2.788,2.788,0,0,1,42.6-27.993a1.808,1.808,0,0,1,1.292.506,1.611,1.611,0,0,1,.533,1.211,3.4,3.4,0,0,1-.271,1.229l-.2.488Zm10.01,0h2.042q2.277,0,2.277,1.608a2.037,2.037,0,0,1-.8,1.717,3.633,3.633,0,0,1-2.25.614H45.332a4.242,4.242,0,0,1-2.5-.65,2.062,2.062,0,0,1-.912-1.771A4.2,4.2,0,0,1,42.3-7.268L45.278-14.6l.2-.506a2.8,2.8,0,0,1,2.674-2.042,1.872,1.872,0,0,1,1.31.506,1.588,1.588,0,0,1,.551,1.211,5.321,5.321,0,0,1-.488,1.771Zm2.385-15.648a2.423,2.423,0,0,1,1.78.732,2.423,2.423,0,0,1,.732,1.78,2.423,2.423,0,0,1-.732,1.78,2.423,2.423,0,0,1-1.78.732,2.423,2.423,0,0,1-1.78-.732,2.423,2.423,0,0,1-.732-1.78,2.423,2.423,0,0,1,.732-1.78A2.423,2.423,0,0,1,49.325-22.916Z" transform="translate(824 2132.932)" fill="#fff"/>
    <path id="Path_28092" data-name="Path 28092" d="M71.173-7.3h2.06q2.295,0,2.295,1.608a2.028,2.028,0,0,1-.813,1.717,3.64,3.64,0,0,1-2.241.614H70.035a2.194,2.194,0,0,1-2.06-1.156A3.47,3.47,0,0,1,65.5-3.363H63.2A4.049,4.049,0,0,1,60-4.737a5.344,5.344,0,0,1-1.2-3.65,9.4,9.4,0,0,1,2.376-6.27,6.936,6.936,0,0,1,5.339-2.783A4.294,4.294,0,0,1,70-15.867l4.029-9.884q1.03-2.53,2.873-2.53a1.881,1.881,0,0,1,1.319.5,1.591,1.591,0,0,1,.542,1.22,3.573,3.573,0,0,1-.271,1.265l-.217.488Zm-6.613.09h.687a1.589,1.589,0,0,0,1.644-.994l1.355-3.343a2.734,2.734,0,0,0,.253-.94,1.154,1.154,0,0,0-.461-.922,1.745,1.745,0,0,0-1.147-.379,3.392,3.392,0,0,0-2.629,1.572,5.432,5.432,0,0,0-1.22,3.4Q63.042-7.212,64.56-7.212ZM80.587-8.657q0,1.355,2.042,1.355H88q2.277,0,2.277,1.608a2.037,2.037,0,0,1-.8,1.717,3.633,3.633,0,0,1-2.25.614H82.1a6.1,6.1,0,0,1-4.346-1.409,5.4,5.4,0,0,1-1.491-4.12,8.524,8.524,0,0,1,2.358-6.017,7.415,7.415,0,0,1,5.61-2.53,5.624,5.624,0,0,1,3.8,1.238,4.1,4.1,0,0,1,1.436,3.261,3.91,3.91,0,0,1-1.988,3.614,6.453,6.453,0,0,1-3.289.669Zm.867-3.289h1.988q1.933,0,1.879-.849-.054-.958-1.247-.958A2.908,2.908,0,0,0,81.454-11.946ZM95.512-9.724l4.192-5.71.325-.488a2.917,2.917,0,0,1,2.349-1.518,1.9,1.9,0,0,1,1.391.533,1.831,1.831,0,0,1,.542,1.364,4.218,4.218,0,0,1-1.084,2.313L96.542-4.574A3.264,3.264,0,0,1,93.9-3.11,2.488,2.488,0,0,1,91.88-4a3.725,3.725,0,0,1-.741-2.448q0-.325.018-.524l.65-7.209a3.868,3.868,0,0,1,.786-2.232,2.226,2.226,0,0,1,1.78-.768,1.525,1.525,0,0,1,1.717,1.735,8.621,8.621,0,0,1-.072.867Z" transform="translate(817.186 2132.713)" fill="#2d96ff"/>
  </g>
</svg>
